# xmcd CD database file
#
# Track frame offsets:
#	150
#	18936
#	46540
#	69172
#	87556
#	106707
#	139315
#	159316
#	180802
#	228729
#
# Disc length: 3482 seconds
#
# Revision: 0
# Processed by: cddbd v1.4PL0 Copyright (c) Steve Scherf et al.
# Submitted via: CDex 1.50beta9
#
DISCID=6d0d980a
DTITLE=Kenny Wayne - Blues Power
DYEAR=2002
DGENRE=Blues
TTITLE0=Parisiaan Stomp
TTITLE1=Wine, Beer and Whiskey
TTITLE2=Another Chance
TTITLE3=You're Spoiled Rotten
TTITLE4=I've Been Alone
TTITLE5=Blues Carry me Home
TTITLE6=Blues Love Theme
TTITLE7=My Heart's In Trouble
TTITLE8=How Long Blues
TTITLE9=Amazing Boogie By The Riverside
EXTD=YEAR: 2002
EXTT0=
EXTT1=
EXTT2=
EXTT3=
EXTT4=
EXTT5=
EXTT6=
EXTT7=
EXTT8=
EXTT9=
PLAYORDER=
